<?xml version="1.0" encoding="UTF-8"?>
<svg width="468px" height="55px" viewBox="0 0 468 55" version="1.1" xmlns="http://www.w3.org/2000/svg" xmlns:xlink="http://www.w3.org/1999/xlink">
    <title>京东数字科技集团</title>
    <g id="页面-1" stroke="none" stroke-width="1" fill="none" fill-rule="evenodd">
        <g id="关于我们" transform="translate(-361.000000, -222.000000)" fill="#2C68FF">
            <g id="top">
                <g id="分组-8" transform="translate(361.000000, 222.000000)">
                    <path d="M8,36.8134557 L10.7405318,17 L54,17 L51.2594682,36.8134557 L35.1317795,36.8134557 L33.990561,45.0642202 C33.5310954,48.6666847 32.5919267,51.1070272 31.1730267,52.3853211 C29.8210418,53.7410873 27.4459024,54.4964314 24.0475373,54.6513761 C23.9310913,54.6513761 23.7731534,54.6707439 23.5737189,54.7094801 C20.5193339,54.903161 18.1382399,55 16.4303654,55 C16.364994,52.9469826 16.1330522,50.2742265 15.7345331,46.9816514 C15.9286097,46.9816514 16.1976341,47.0010192 16.5416142,47.0397554 C18.5439377,47.1559639 20.2076141,47.1946995 21.5326931,47.1559633 C23.856255,47.1946995 25.145295,46.0132638 25.3998517,43.6116208 L26.3401514,36.8134557 L8,36.8134557 Z M5,13 L6.01183394,5.72 L28.9917107,5.72 C28.9061689,5.21925676 28.7557892,4.48741222 28.5405672,3.52444444 C28.2906047,2.25332698 28.1114934,1.30963271 28.0032277,0.693333333 L38.1060202,0 C38.2370097,0.731855511 38.4234385,2.04147204 38.6653122,3.92888889 C38.7909481,4.69926311 38.8824968,5.29629418 38.9399611,5.72 L60,5.72 L58.9881661,13 L5,13 Z M3.605108,53 C3.15329701,52.0372996 2.36903003,50.5162559 1.25228353,48.4368231 C0.699310306,47.3585987 0.281886635,46.5691962 0,46.0685921 C7.27681548,42.7183948 12.8645747,39.695561 16.7634453,37 L21,42.7761733 C16.0299892,45.8568144 10.2317499,49.2647226 3.605108,53 Z M49.5372009,53 C44.8791552,49.7441698 40.3668001,46.8178424 36,44.2209302 L41.3524905,38 C46.5144637,40.9069913 51.063588,43.5620035 55,45.9651163 L49.5372009,53 Z M17.7412148,24 L17,29 L43.2587852,29 L44,24 L17.7412148,24 Z M64,14.8347548 L65.1077635,6.80170576 L79.6352359,6.80170576 C81.1921816,4.57354963 82.6763906,2.30633705 84.0879073,0 L93.8987324,0.644989339 L89.710741,6.80170576 L119,6.80170576 L117.892237,14.8347548 L83.8581176,14.8347548 C81.0311292,18.6265293 78.3557182,22.0273481 75.8318046,25.0373134 L86.9031445,25.0373134 L88.010908,17.0042644 L96.9148427,17.0042644 L95.8070792,25.0373134 L114.669362,25.0373134 L113.57777,32.9530917 L94.7154874,32.9530917 L93.0902286,44.738806 C92.6333456,48.3351281 91.6884374,50.7977901 90.2554756,52.1268657 C88.8898376,53.5341222 86.4698761,54.3745544 82.9955183,54.6481876 C80.6254128,54.8436399 77.8170265,54.9609095 74.570275,55 C74.5192403,53.6709244 74.3686577,51.364622 74.1185226,48.0810235 C74.0364626,47.2601238 73.9833339,46.6542308 73.9591348,46.2633262 C74.8465621,46.3415071 75.7588925,46.380597 76.6961534,46.380597 C77.5108662,46.4196875 78.7578335,46.4392324 80.4370927,46.4392324 C82.9148929,46.5955942 84.2616435,45.3251734 84.477385,42.6279318 L85.8115527,32.9530917 L64.5475507,32.9530917 L65.6714859,24.8027719 C68.6452216,21.3628115 71.3684294,18.0401724 73.841191,14.8347548 L64,14.8347548 Z M63.2831659,53 L58,46.70625 C62.8162525,43.0249816 67.789169,38.7896073 72.9188985,34 L79,39.284375 C73.0249536,44.7073188 67.7860612,49.2791481 63.2831659,53 Z M107.975285,53 C104.012396,48.6291172 100.020674,44.6159123 96,40.9602649 L102.527389,35 C106.926537,38.735118 111.084033,42.5297821 115,46.384106 L107.975285,53 Z M121.408722,17.6765016 L122.280718,11.4172813 L127.720547,11.4172813 C126.710851,9.98769921 125.190946,7.88199494 123.160787,5.10010537 L128.516279,1.50684932 C130.947157,4.21146417 132.692298,6.23989489 133.751756,7.59220232 L128.305475,11.4172813 L133.86229,11.4172813 L135.412504,0.289778714 L142.431639,0.289778714 L140.881425,11.4172813 L145.619341,11.4172813 L141.916524,7.76606955 C144.468924,5.67965237 146.812196,3.55462972 148.946411,1.39093783 L153.468127,5.04214963 C150.718001,7.70812713 148.394226,9.83314979 146.496733,11.4172813 L151.176156,11.4172813 L150.312235,17.6185458 C153.596449,12.518415 156.442339,6.64562508 158.849991,0 L166.191736,1.04320337 C165.129177,3.63190616 164.013524,6.18193335 162.844745,8.69336143 L177,8.69336143 L175.926154,16.4014752 L172.70905,16.4014752 C170.489325,26.1767261 167.479206,33.7881709 163.678603,39.2360379 C165.691297,41.8633781 168.508079,44.3168133 172.129033,46.5964173 C171.647573,47.2532523 170.947582,48.2191717 170.02904,49.4942044 C168.529517,51.5806216 167.339999,53.2613213 166.460453,54.5363541 C162.936388,51.5612777 160.162009,48.6635195 158.137233,45.8429926 C155.282202,48.7021569 151.542416,51.7544622 146.917761,55 C145.979356,53.3385937 144.954244,51.5999388 143.842393,49.7839831 L141.409566,52.971549 C138.549622,51.3874174 136.119979,50.0737671 134.120566,49.0305585 C130.015051,51.3487998 124.654406,53.299957 118.038471,54.8840885 C117.885239,54.3045282 117.528362,53.0874698 116.967829,51.2328767 C116.504068,49.8032946 116.181462,48.7601016 116,48.1032666 C120.691646,47.1759701 124.366665,46.2680058 127.025167,45.3793467 C124.400512,44.0656766 121.882115,42.8292998 119.4699,41.6701791 C121.081027,39.6223993 122.296083,38.0382915 123.115103,36.9178082 L118.260202,36.9178082 L119.148345,30.5426765 L127.688293,30.5426765 C127.981475,30.1176656 128.399053,29.4994772 128.941039,28.6880927 L129.812507,27.4710221 L137.458915,27.5869336 C137.215493,27.9346698 136.855749,28.4176295 136.379672,29.0358272 C135.892829,29.7312996 135.530394,30.2335777 135.292355,30.5426765 L147.166392,30.5426765 L146.245952,37.1496312 C144.543319,39.854246 142.696872,42.191771 140.706557,44.1622761 C141.108592,44.3554629 141.731134,44.6452387 142.574201,45.0316122 C143.897294,45.6111726 144.885563,46.0748139 145.539035,46.4225501 C149.192754,43.9883967 152.214428,41.612235 154.604146,39.2939937 C153.20473,35.6234449 152.360053,31.4699916 152.070089,26.833509 L149.629189,30.0790306 L147.955497,26.13804 L145.637681,28.9199157 C143.993293,27.5676083 141.826566,25.9062269 139.137434,23.9357218 L138.766029,26.601686 L131.746894,26.601686 L132.255558,22.9504742 C129.642633,25.1914408 126.271381,27.2778267 122.141702,29.2096944 C121.859402,28.4369473 121.416462,27.277844 120.812867,25.7323498 C120.34504,24.6118665 120.012326,23.7811759 119.814716,23.2402529 C124.168919,21.6561213 127.683351,19.8015561 130.358119,17.6765016 L121.408722,17.6765016 Z M159.018001,17.3529412 C158.895119,23.9412094 159.40136,29.1568435 160.536739,33 C162.768831,29.0391959 164.5899,23.7059159 166,17 L159.239212,17 L159.018001,17.3529412 Z M129,39.3417722 L134.797681,42 C136.239396,40.7763652 137.640155,39.1097152 139,37 L130.701113,37 L129,39.3417722 Z M143.370548,19.375 L148.173741,22.4375 C149.197388,20.9374925 150.139465,19.4583406 151,18 L140.652917,18 L140,23 L143.370548,19.375 Z M180.698105,19.9946695 L182.630483,5.98081023 L203.775746,5.98081023 C203.551028,4.49537281 203.246896,2.73632857 202.863343,0.703624733 L213.093692,0 L213.909071,5.98081023 L234,5.98081023 L232.067623,19.9946695 L224.80443,19.9946695 L224.044416,25.5063966 L210.814042,32.249467 L232.369324,32.249467 L231.293985,40.0479744 L209.56298,40.0479744 L208.714028,46.2046908 C208.111526,51.9900787 204.864773,54.8631843 198.973671,54.8240938 C194.740141,54.9413652 191.295741,55 188.640367,55 C188.488592,51.2864064 188.29969,48.5501154 188.073653,46.7910448 C190.551268,46.9474066 193.137249,47.0255864 195.831672,47.0255864 C198.655344,47.2210386 200.133275,45.9897077 200.265511,43.3315565 L200.718285,40.0479744 L176,40.0479744 L177.07534,32.249467 L201.793625,32.249467 L202.117035,29.9040512 L210.814746,25.4477612 L187.267943,25.4477612 L188.019872,19.9946695 L180.698105,19.9946695 Z M190.608616,14 L190,18 L224.391384,18 L225,14 L190.608616,14 Z M240.558354,10.400641 C240.655811,7.42341816 240.649324,4.91632073 240.538894,2.8792735 C247.312316,2.56588162 254.51203,1.99786736 262.13825,1.17521368 L262.534177,8.52029915 C260.104089,8.83369103 257.562054,9.10790481 254.907994,9.34294872 L254.024906,15.7478632 L260.77465,15.7478632 L259.713324,23.4455128 L252.96358,23.4455128 L252.137204,29.4391026 L254.456849,27.0886752 C256.785518,28.9298525 258.977201,30.7710022 261.031965,32.6121795 L257.96137,35.7264957 L276.265793,34.0811966 L280.964794,0 L289.29926,0 L284.69748,33.3760684 L291,32.7884615 L290.258428,40.7211538 L283.603747,41.3087607 L281.716045,55 L273.381578,55 L275.163958,42.0726496 L256.507374,43.7179487 L256.809649,36.8429487 L255.240953,38.4294872 C254.29657,37.3326156 253.02705,36.0398935 251.432354,34.5512821 L248.629157,54.8824786 L240.705544,54.8824786 L243.338605,35.7852564 C241.159144,39.389263 238.755085,42.7777619 236.126358,45.9508547 L235,36.6666667 C238.597592,32.7100942 241.611622,28.303087 244.04218,23.4455128 L237.409823,23.4455128 L238.471149,15.7478632 L246.101294,15.7478632 L246.895263,9.98931624 C244.838943,10.1460122 242.726661,10.2831191 240.558354,10.400641 Z M272.998488,19 C270.60449,16.4722096 267.605024,13.5750163 264,10.3083333 L269.590224,5 C273.127409,7.91668125 276.26397,10.6583205 279,13.225 L272.998488,19 Z M268.974697,33 C266.166545,30.1158654 263.175009,27.2918593 260,24.527897 L265.652353,19 C268.328894,21.1230435 271.444745,23.7467655 275,26.8712446 L268.974697,33 Z M316.933501,14.9735169 L317.956454,7.51588983 L329.999069,7.51588983 L331.030013,0 L339.309311,0 L338.278367,7.51588983 L352,7.51588983 L350.977047,14.9735169 L337.255414,14.9735169 L336.480208,20.625 L348.407028,20.625 L347.352108,28.315678 C344.125253,33.8312423 340.356182,38.3756883 336.044781,41.9491525 C339.147096,43.8135686 343.041978,45.3866461 347.729545,46.6684322 C347.231676,47.4841142 346.492875,48.6493568 345.51312,50.1641949 C344.325693,52.067453 343.411842,53.5240062 342.771538,54.5338983 C336.871555,52.2422202 332.189502,49.7952108 328.725239,47.1927966 C324.183667,49.9117368 318.40372,52.5141119 311.385225,55 C310.05855,52.0091658 308.930153,49.5427357 308,47.6006356 C313.957635,45.8139035 318.910987,43.8912532 322.860206,41.8326271 C320.198573,38.7252669 317.877787,34.8217043 315.897778,30.121822 L320.485859,27.907839 L315.506701,27.907839 L316.505678,20.625 L328.20091,20.625 L328.976116,14.9735169 L316.933501,14.9735169 Z M297.147366,16.8415418 L298.177729,9.24518201 L303.790587,9.24518201 L305.044594,0 L312.856304,0 L311.602297,9.24518201 L316,9.24518201 L314.969637,16.8415418 L310.571934,16.8415418 L309.48566,24.8501071 L314.474076,23.9079229 L313.803143,28.8543897 C313.638071,30.0713837 313.513589,31.1313302 313.429692,32.0342612 L308.367437,33.0942184 L306.442496,47.2858672 C305.913913,52.0360694 303.575162,54.4896495 299.426173,54.6466809 C296.809595,54.8822282 294.729807,55 293.186745,55 C293.233483,53.2333959 293.18585,50.7405586 293.043843,47.5214133 C293.037216,47.2858661 293.022602,47.1092083 293,46.9914347 C293.38044,47.0306926 294.573633,47.0503212 296.579613,47.0503212 C298.073448,47.1288369 298.884961,46.2651768 299.014177,44.4593148 L300.324095,34.8019272 L294.419787,36.0974304 L295.129052,27.0289079 C297.128405,26.7933607 299.251443,26.4989311 301.49823,26.1456103 L302.760224,16.8415418 L297.147366,16.8415418 Z M338,29 L323,29 C324.707973,32.5555733 326.800288,35.5555433 329.277007,38 C332.596575,35.5925806 335.50421,32.5926106 338,29 Z M358.051747,35 L360.157812,19.775 C358.422719,21.3305633 356.548562,22.9055476 354.535285,24.5 C354.442752,22.633324 354.264326,19.6972423 354,15.6916667 C359.424288,11.4138675 363.850116,6.18336425 367.277616,0 L375.941399,0.758333333 C374.841935,2.50834208 373.758625,4.14165908 372.691438,5.65833333 L383.389231,5.65833333 C383.078887,4.8027735 382.593892,3.519453 381.934231,1.80833333 C381.73136,1.30277525 381.57081,0.91389025 381.452579,0.641666667 L390.594243,0.0583333333 C390.786355,0.641669583 391.127597,1.55554933 391.617979,2.8 C392.108361,4.04445067 392.463709,4.99721892 392.684034,5.65833333 L408,5.65833333 L407.273771,10.9083333 L390.204069,10.9083333 L389.840954,13.5333333 L404.86463,13.5333333 L404.219093,18.2 L389.195417,18.2 L388.840372,20.7666667 L403.864048,20.7666667 L403.218511,25.4333333 L388.194835,25.4333333 L387.823651,28.1166667 L405.2441,28.1166667 L404.517871,33.3666667 L366.286415,33.3666667 L366.060477,35 L358.051747,35 Z M352.437166,42.6333333 L353.295414,36.3916667 L375.551044,36.3916667 L375.879906,34 L383.957014,34 L383.628153,36.3916667 L406,36.3916667 L405.141752,42.6333333 L387.883469,42.6333333 C391.409823,45.1611238 397.440178,47.0861045 405.974715,48.4083333 C404.390209,50.3527875 402.872511,52.3749895 401.421573,54.475 C392.590548,52.4916568 386.218316,49.6722405 382.304686,46.0166667 L381.06945,55 L372.992341,55 L374.235598,45.9583333 C369.376791,49.4583508 362.271269,52.3944326 352.918817,54.7666667 C352.795944,54.5333322 352.616984,54.1444472 352.381933,53.6 C351.464424,51.5388786 350.670455,49.8472288 350,48.525 C358.687112,47.0472148 365.174718,45.0833456 369.463013,42.6333333 L352.437166,42.6333333 Z M367.369576,25 L367,28 L379.630424,28 L380,25 L367.369576,25 Z M369.361766,11 L369,14 L381.638234,14 L382,11 L369.361766,11 Z M368.353945,18 L368,21 L380.646055,21 L381,18 L368.353945,18 Z M410,55 L417.376463,2 L468,2 L460.631634,54.9418222 L452.008621,54.9418222 L452.340603,52.5565313 L418.845771,52.5565313 L418.505693,55 L410,55 Z M424.946124,10 L420,46 L453.053876,46 L458,10 L424.946124,10 Z M424.561892,22.8521127 L425.567139,15.7059859 L443.684757,15.7059859 L444.346749,11 L452.339815,11 L451.677823,15.7059859 L456,15.7059859 L454.994753,22.8521127 L450.672576,22.8521127 L448.8664,35.6919014 C448.390809,41.0369986 445.581919,43.748239 440.439645,43.8257042 C438.568109,43.941902 436.152172,44 433.191763,44 C433.015101,41.3274514 432.783957,39.042263 432.498325,37.1443662 C434.737339,37.2218314 436.409431,37.2605634 437.514651,37.2605634 C439.708745,37.3767611 440.885503,36.447193 441.044961,34.471831 L442.1728,26.4542254 C437.937792,32.1479158 432.246575,36.9700507 425.09898,40.9207746 C424.422624,39.8362622 423.172668,37.9190278 421.349073,35.1690141 C421.178955,34.9753511 421.062599,34.8204231 421,34.7042254 C427.863058,31.3732228 433.175119,27.4225581 436.936343,22.8521127 L424.561892,22.8521127 Z" id="京东数字科技集团"></path>
                </g>
            </g>
        </g>
    </g>
</svg>