<?xml version="1.0" encoding="UTF-8"?>
<svg width="274px" height="120px" viewBox="0 0 274 120" version="1.1" xmlns="http://www.w3.org/2000/svg" xmlns:xlink="http://www.w3.org/1999/xlink">
    <!-- Generator: Sketch 52.4 (67378) - http://www.bohemiancoding.com/sketch -->
    <title>合并形状</title>
    <desc>Created with Sketch.</desc>
    <g id="页面-1" stroke="none" stroke-width="1" fill="none" fill-rule="evenodd">
        <g id="获取方案" transform="translate(-410.000000, -211.000000)" fill="#2C68FF">
            <g id="分组-2" transform="translate(410.000000, 211.000000)">
                <g id="分组-11">
                    <path d="M47.3276444,49.6681238 C46.3150324,47.1347514 44.7561473,43.6915574 42.6509426,39.3384386 C38.7801357,43.0849753 32.9336354,46.8849769 25.1112665,50.7385575 C24.2174427,48.7047233 23.0990596,46.4389946 21.7560834,43.9413035 C30.2222107,39.9449977 35.969328,36.2520384 38.9976077,32.8623147 C42.2025002,29.6153162 44.924578,24.2632012 47.1639229,16.8058091 C48.4233227,12.9522285 49.8897607,7.83203853 51.5632809,1.4450855 L59.7491171,1.4450855 C58.1053736,7.58226942 56.5930543,12.8095017 55.2121139,17.1269392 C53.2923731,23.2284419 51.146166,28.1523877 48.7734281,31.8989243 C50.7234708,35.0745602 52.9200539,38.8745619 55.3632432,43.2990433 L47.3276444,49.6681238 Z M8.56919187,49.3469937 L5,42.5497397 C7.10647721,40.9083998 8.4708146,38.6961923 9.09305309,35.9130507 L17.9561211,2.08734572 L26.1419574,2.08734572 L17.5313185,34.9496604 C21.5198903,32.5233319 26.0494696,29.597509 31.1201923,26.172104 C30.6226338,29.7045529 30.34133,32.6838969 30.2762723,35.1102255 C23.9332738,39.0351687 18.5237834,42.4605223 14.0476386,45.386389 C12.4287343,46.5281907 10.6026037,47.848379 8.56919187,49.3469937 Z M33.5842601,18.197373 C32.3555222,13.6301663 30.9548671,8.90246474 29.3822529,4.01412639 L36.9561229,0.428173481 C38.8480231,5.45923704 40.486922,10.0263752 41.8728688,14.1297249 L33.5842601,18.197373 Z M94.3697483,3.26482279 L99.5743144,47.3131697 L89.6229056,47.3131697 L88.6913576,36.9834844 L71.4636499,36.9834844 L65.2259034,47.3131697 L55.3279968,47.3131697 L83.6158065,3.26482279 L94.3697483,3.26482279 Z M86.9912578,10.5972937 L86.8842534,10.5972937 C86.5358961,11.3822823 85.8248156,12.6667899 84.7509906,14.450855 C84.5148246,14.807668 81.3983198,19.9635388 75.4013827,29.918622 L88.72343,29.918622 C87.7030593,19.9278575 87.1682917,14.7541463 87.1191112,14.3973333 L87.0925987,13.2733779 C87.0011528,11.9888511 86.9673729,11.0968319 86.9912578,10.5972937 Z M104.428991,47.3666914 L115.970612,3.31834448 L125.065986,3.31834448 L113.524364,47.3666914 L104.428991,47.3666914 Z M154.638345,40.9440891 C154.181572,40.3731883 153.478589,39.5168499 152.529375,38.3750483 C152.072602,37.8041474 151.721111,37.3759782 151.47489,37.0905278 L150.240792,41.8004361 L171.481165,41.8004361 L169.672089,48.7047335 L141.69044,48.7047335 L153.778991,2.56904089 L181.332623,2.56904089 L179.523548,9.47333827 L158.711193,9.47333827 L157.785619,13.0057695 L162.724915,10.4902503 L165.949756,19.214285 C168.270561,16.0743304 170.398104,13.0593056 172.33245,10.1691202 L177.747125,12.577596 C174.534294,17.2161652 171.369986,21.533538 168.254105,25.5298438 C168.961967,27.4566341 169.926953,30.2397339 171.149094,33.8792267 C171.570904,35.1280723 171.880677,36.0557722 172.078423,36.6623543 L165.180871,40.7300024 C164.949186,39.9806951 164.614823,38.8745913 164.177772,37.4116579 L162.634943,32.2735761 C160.501123,34.6999047 157.835617,37.5900468 154.638345,40.9440891 Z M123.444655,49.9357322 C123.765283,47.7591728 123.967471,45.4220826 124.051228,42.9243915 C124.229569,42.9243915 124.492403,42.9422319 124.839737,42.9779132 C127.201466,43.0849571 129.238339,43.1384782 130.950418,43.1384782 C133.178823,43.2098408 134.609151,42.1750986 135.241444,40.0342205 C136.493223,36.073596 137.561458,32.5412001 138.446182,29.4369268 L125.766161,29.4369268 L132.110228,10.3296852 L138.583993,10.3296852 L134.353399,22.8002379 L137.831042,22.8002379 L142.577925,8.56346962 L130.486429,8.56346962 L132.239409,1.87325898 L151.446698,1.87325898 L144.411812,22.8002379 L147.086922,22.8002379 C145.154374,29.2228722 143.284354,35.2707621 141.476804,40.9440891 C139.923096,47.0099105 135.985845,49.9892545 129.664934,49.8822106 C128.335857,49.9178919 126.262451,49.9357322 123.444655,49.9357322 Z M121.986922,39.9806988 L123.474985,33.0764014 C127.490263,32.8623136 131.694033,32.5411867 136.086422,32.1130111 L135.273039,35.2172688 C134.88799,36.8229274 134.611326,37.9468716 134.443039,38.589135 L132.956408,38.7497 C127.858274,39.2849196 124.201815,39.6952484 121.986922,39.9806988 Z M152.134011,34.5750086 C155.174074,31.6848232 157.9916,28.7590003 160.586674,25.7974522 C159.50202,22.5861351 158.325267,19.2499834 157.056379,15.7888971 L152.134011,34.5750086 Z M179.746124,23.121368 L181.499104,16.4311573 L205.842604,16.4311573 L204.089624,23.121368 L194.24522,23.121368 C190.052762,29.865134 186.909585,34.6463568 184.815597,37.4651796 C186.537025,37.4294983 189.343349,37.2689349 193.234652,36.9834844 C193.16261,36.3055397 193.036715,35.2886379 192.856963,33.9327484 C192.499187,31.0782442 192.27458,29.0087598 192.183134,27.7242329 L198.680238,25.7974522 C199.10173,28.5449125 199.700725,33.2012525 200.47724,39.7666121 C203.963316,36.1271193 207.248935,28.4200737 210.334196,16.6452441 L206.214526,16.6452441 L208.023602,9.7409467 L212.303778,9.7409467 C213.412884,5.78032219 214.317157,2.53337243 215.016624,2.13162821e-13 L222.185918,2.13162821e-13 C221.290117,3.28267977 220.36801,6.52962953 219.41957,9.7409467 L232.206595,9.7409467 C227.81346,25.6904886 224.849943,36.2519955 223.315957,41.4257843 C221.918752,46.349804 219.016378,48.9188192 214.608749,49.132907 C212.252912,49.2756322 209.630466,49.3469937 206.741333,49.3469937 C207.000996,46.3140831 207.142928,43.798589 207.167131,41.8004361 C207.59515,41.8004361 208.214662,41.8182765 209.025684,41.8539578 C210.647727,41.9253204 211.868917,41.9610012 212.689288,41.9610012 C214.632346,42.0323638 215.942511,40.9797811 216.619822,38.8032217 C218.894835,31.3458296 220.990611,23.959911 222.907212,16.6452441 L217.449988,16.6452441 L217.42194,16.7522875 C214.786468,25.9937446 212.297642,32.7017288 209.955386,36.8764411 C207.664039,41.2652412 204.005409,45.9037409 198.979386,50.7920792 C198.590492,50.5066288 198.042828,50.0784596 197.336376,49.5075588 C195.870836,48.2943945 194.576389,47.3131734 193.452997,46.5638661 C194.272662,45.8859213 195.061323,45.1901464 195.819001,44.4765204 L194.059673,45.0652589 C194.027462,44.7798085 193.987632,44.38732 193.94018,43.8877818 C193.951258,43.7093753 193.948312,43.5844926 193.931342,43.51313 C189.414979,43.869943 185.616714,44.2089103 182.536432,44.530042 C180.589916,44.7441299 178.511324,45.1901394 176.300594,45.8680842 L175.296915,39.2849169 C176.439324,38.464247 177.558855,37.3224624 178.655542,35.8595291 C181.459757,31.8275419 184.088185,27.5815307 186.540903,23.121368 L179.746124,23.121368 Z M185.671114,9.90151175 L187.452142,3.10425774 L207.675973,3.10425774 L205.894945,9.90151175 L185.671114,9.90151175 Z M268.973451,15.4867257 C268.973451,24.0398774 262.039877,30.9734513 253.486726,30.9734513 C244.933574,30.9734513 238,24.0398774 238,15.4867257 C238,6.93357388 244.933574,-1.17239551e-13 253.486726,-1.17239551e-13 C262.039877,-1.17239551e-13 268.973451,6.93357388 268.973451,15.4867257 Z M250.797966,18.5467814 L250.797966,10.2679633 L253.741215,10.2679633 C255.133558,10.2679633 256.435183,10.8367679 257.404696,11.8708111 C258.374208,12.9024269 258.879081,14.2593051 258.825438,15.6906215 C258.720519,18.5492087 256.603999,20.705488 253.902143,20.705488 L250.477688,20.705488 L250.477688,25.6637168 L253.902143,25.6637168 C259.257735,25.6637168 263.451332,21.4563425 263.656436,15.877526 C263.758988,13.0877132 262.775276,10.4427312 260.887526,8.43209171 C258.99741,6.41821582 256.459637,5.30973451 253.741215,5.30973451 L245.964602,5.30973451 L245.964602,18.5467814 L250.797966,18.5467814 Z M10.4884929,80.8685644 L12.1146331,73.9180693 L33.0919285,73.9180693 L32.7888403,69.2665842 L41.9702198,68.6784653 C41.9665185,68.999259 41.9788043,69.4804423 42.0070775,70.1220297 C42.0515835,71.7616419 42.0587858,73.0269757 42.0286845,73.9180693 L60.4373315,73.9180693 L58.8111913,80.8685644 L43.9344359,80.8685644 L49.9606596,83.7022277 L48.697206,84.985396 C46.863869,86.8745144 45.3940241,88.3537075 44.287627,89.4230198 L55.5789773,89.4230198 L53.9653459,96.3200495 L17.8437275,96.3200495 L17.2558153,98.8329208 C15.7649678,106.425038 12.0726856,113.286355 6.17885805,119.417079 C5.81746162,119.131929 5.27954464,118.686389 4.565091,118.080446 C2.76644805,116.619052 1.38389553,115.514113 0.41739197,114.765594 C3.1203722,112.05667 5.09961586,109.543823 6.35518231,107.22698 C7.67376125,104.945781 8.74883621,101.951751 9.58043946,98.244802 L11.6443866,89.4230198 L21.8119533,89.4230198 C21.1405781,88.1754888 20.1293608,86.322042 18.7782712,83.8626238 L24.6160592,80.8685644 L10.4884929,80.8685644 Z M30.1628027,87.1240099 L25.7184394,89.4230198 L35.7789791,89.4230198 C37.5303061,87.4269702 39.9276867,84.5755136 42.9711927,80.8685644 L26.4355185,80.8685644 C27.0855773,81.9022329 28.0344742,83.4883556 29.2822376,85.6269802 C29.6589301,86.3042113 29.9524489,86.8032162 30.1628027,87.1240099 Z M98.7715392,102.201238 L93.7189939,100.009158 L91.5424678,109.312129 L105.402467,109.312129 L103.626221,116.904208 L54.3402796,116.904208 L56.116525,109.312129 L69.9765238,109.312129 L72.0779972,100.32995 L65.4896152,102.415099 C64.7898763,95.0368443 63.9944711,87.533949 63.1033759,79.9061881 L70.4624862,77.5002475 C71.3280729,83.5596838 72.1334223,90.028926 72.8785586,96.9081683 L79.3205754,69.3735149 L87.0800342,69.3735149 L77.7359825,109.312129 L83.783009,109.312129 L93.1270607,69.3735149 L100.886519,69.3735149 L94.6321342,96.1061881 C98.5721291,89.9398207 102.329519,83.7913673 105.904416,77.6606436 L112.326774,80.1735149 C107.171526,88.9418755 102.65316,96.2843764 98.7715392,102.201238 Z M115.428551,84.985396 L116.779499,79.2111386 L121.756255,79.2111386 C120.958855,77.8923201 119.754433,75.9497653 118.142955,73.3834158 L123.36012,70.0685644 C125.345035,72.5636263 126.762349,74.4348948 127.612104,75.6824257 L122.29139,79.2111386 L127.375173,79.2111386 L129.776857,68.9457921 L136.198478,68.9457921 L133.796794,79.2111386 L138.131389,79.2111386 L135.066469,75.8428218 C137.585986,73.9180597 139.91759,71.9576832 142.061352,69.9616337 L145.875461,73.3299505 C143.123828,75.7893687 140.810061,77.7497452 138.934091,79.2111386 L143.215172,79.2111386 L141.876734,84.9319307 C145.332117,80.2269567 148.454776,74.8091891 151.244805,68.6784653 L157.869376,69.6408416 C156.668483,72.0289723 155.422434,74.3814241 154.131191,76.6982673 L167.081461,76.6982673 L165.417794,83.8091584 L162.474551,83.8091584 C159.579859,92.8270253 156.153291,99.8487372 152.194745,104.874505 C153.803904,107.298279 156.164072,109.561623 159.275319,111.664604 C158.776794,112.270548 158.051024,113.161628 157.097989,114.337871 C155.541719,116.262633 154.304923,117.813113 153.387564,118.989356 C150.426423,116.244788 148.144317,113.571548 146.541178,110.969554 C143.676496,113.607191 139.985306,116.423005 135.467495,119.417079 C134.755806,117.884398 133.971618,116.280454 133.114907,114.605198 L130.607465,117.545792 C128.130981,116.084399 126.024264,114.87253 124.287251,113.910149 C120.32634,116.048773 115.249587,117.848755 109.056839,119.310149 C108.967873,118.775492 108.748937,117.652731 108.400027,115.941832 C108.102089,114.623013 107.899141,113.660647 107.791177,113.054703 C112.165393,112.199253 115.607815,111.361638 118.118547,110.541832 C115.83342,109.329944 113.638674,108.189362 111.534245,107.12005 C113.189202,105.230931 114.440826,103.76956 115.289153,102.735891 L110.847532,102.735891 L112.223496,96.854703 L120.036469,96.854703 C120.342255,96.4626218 120.778921,95.8923305 121.346479,95.1438119 L122.251325,94.0210396 L129.236577,94.1279703 C128.983145,94.448764 128.611341,94.8943041 128.121155,95.464604 C127.614291,96.1061913 127.238318,96.569553 126.993225,96.854703 L137.856467,96.854703 L136.430467,102.949752 C134.633743,105.444814 132.73789,107.601229 130.742852,109.419059 C131.09359,109.597278 131.637528,109.864602 132.37468,110.22104 C133.533922,110.755696 134.397087,111.183414 134.964199,111.504208 C138.522017,109.258652 141.496468,107.066595 143.887642,104.92797 C142.931751,101.541815 142.526055,97.7101699 142.670541,93.4329208 L140.150591,96.4269802 L138.967674,92.7913366 L136.601307,95.3576733 C135.216415,94.1101423 133.380964,92.5774843 131.0949,90.7596535 L130.519497,93.2190594 L124.097875,93.2190594 L124.885928,89.8507426 C122.297378,91.9180796 119.028717,93.8428129 115.079846,95.625 C114.889872,94.9121251 114.587078,93.8428289 114.171454,92.4170792 C113.842478,91.3834107 113.611502,90.6170817 113.47852,90.1180693 C117.602069,88.6566759 120.981234,86.9458019 123.616118,84.985396 L115.428551,84.985396 Z M149.502743,84.1299505 C148.815271,90.1180992 148.829943,94.8586459 149.546761,98.3517327 C151.95876,94.7517147 154.109623,89.9042384 155.999416,83.8091584 L149.738336,83.8091584 L149.502743,84.1299505 Z M120.284706,104.714109 L125.378256,106.959653 C126.797397,105.925985 128.214888,104.518078 129.630773,102.735891 L122.031855,102.735891 L120.284706,104.714109 Z M134.792816,86.1616337 L138.889075,88.7814356 C139.93848,87.4982609 140.912349,86.232927 141.810711,84.985396 L132.445847,84.985396 L131.445146,89.2626238 L134.792816,86.1616337 Z M169.628037,86.8566832 L172.617633,74.0784653 L191.93601,74.0784653 C191.860466,72.7240031 191.736271,71.1200588 191.563421,69.2665842 L200.971363,68.625 L201.193847,74.0784653 L219.54898,74.0784653 L216.559384,86.8566832 L209.923709,86.8566832 L208.747885,91.8824257 L196.071539,98.0309406 L215.76451,98.0309406 L214.100844,105.141832 L194.247332,105.141832 L192.933911,110.755693 C191.878086,116.030967 188.660864,118.650743 183.28215,118.615099 C179.40414,118.72203 176.252204,118.775495 173.826246,118.775495 C174.011982,115.38934 174.078427,112.894315 174.025582,111.290347 C176.275479,111.432922 178.63121,111.504208 181.092843,111.504208 C183.655484,111.682427 185.113289,110.559666 185.466301,108.135891 L186.166792,105.141832 L163.584092,105.141832 L165.247758,98.0309406 L187.830459,98.0309406 L188.33081,95.8923267 L196.66634,91.8289604 L175.15391,91.8289604 L176.317226,86.8566832 L169.628037,86.8566832 Z M178.791956,81.0824257 L177.853799,85.0923267 L209.159201,85.0923267 L210.097359,81.0824257 L178.791956,81.0824257 Z M219.512597,101.452723 C219.582076,100.240836 219.663125,98.3695671 219.755748,95.8388614 C219.819652,93.7358806 219.883332,92.1675794 219.94679,91.1339109 C226.216374,85.0744747 231.909706,77.589401 237.026959,68.6784653 L244.242989,71.4586634 C241.783274,75.4151188 239.125062,79.228942 236.268275,82.9002475 L232.603205,98.5655941 C237.489369,96.2843945 241.430532,94.3061965 244.426813,92.6309406 L249.893145,69.2665842 L258.080712,69.2665842 L253.952818,86.9101485 C258.822749,83.6309242 263.639317,79.817101 268.402667,75.4685644 L273.086237,81.2962871 C266.639657,86.8923547 259.486378,92.0784415 251.626187,96.854703 L249.136941,107.494307 C248.546239,109.561644 249.284317,110.524011 251.351197,110.381436 L253.759305,110.381436 C256.151906,110.524011 257.69056,109.436893 258.375313,107.12005 C259.050344,105.302219 260.001024,102.611156 261.22738,99.0467822 C263.132114,99.902232 265.533264,100.846777 268.430901,101.880446 C267.229562,105.337889 265.931405,108.599242 264.536391,111.664604 C263.522216,114.017091 262.183723,115.621035 260.520872,116.476485 C258.877018,117.403222 256.431877,117.866584 253.185374,117.866584 L247.352402,117.866584 C243.954857,117.902228 241.803903,117.26065 240.899475,115.941832 C239.879681,114.658657 239.796244,112.270562 240.649164,108.777475 L242.200252,102.147772 C239.883194,103.35966 237.520998,104.535885 235.113592,105.676485 C234.691948,104.428954 233.969143,102.486399 232.945157,99.8487624 C232.76816,99.3853937 232.633329,99.0467832 232.540661,98.8329208 L227.824855,118.989356 L220.332963,118.989356 L225.949401,94.9834158 C223.914986,97.1220404 221.769407,99.2784545 219.512597,101.452723 Z" id="合并形状"></path>
                </g>
            </g>
        </g>
    </g>
</svg>