<?xml version="1.0" encoding="UTF-8"?>
<svg width="168px" height="29px" viewBox="0 0 168 29" version="1.1" xmlns="http://www.w3.org/2000/svg" xmlns:xlink="http://www.w3.org/1999/xlink">
    <!-- Generator: Sketch 52.4 (67378) - http://www.bohemiancoding.com/sketch -->
    <title>LOGO </title>
    <desc>Created with Sketch.</desc>
    <g id="页面-1" stroke="none" stroke-width="1" fill="none" fill-rule="evenodd">
        <g id="新闻资讯确认" transform="translate(-359.000000, -27.000000)" fill="#ffffff">
            <g id="top">
                <g id="导航" transform="translate(359.000000, 27.000000)">
                    <path d="M36.427704,21.9021028 C34.0302654,26.129164 29.6211206,28.8679756 24.4524725,28.8679756 L19.5737625,28.8679756 L19.5737625,21.8361611 L24.4524725,21.8361611 C28.3012096,21.8361611 31.3170265,18.7779009 31.4668859,14.7223421 C31.5423676,12.6925196 30.8231529,10.7687957 29.4430941,9.30483242 C28.0605514,7.8390374 26.2069038,7.03181452 24.2228537,7.03181452 L20.0301023,7.03181452 L20.0301023,18.7736738 C20.0301023,24.4125392 15.5376322,29 10.0153272,29 C4.49302212,29 0,24.4125392 0,18.7736738 L0,16.945481 L6.88663273,16.945481 L6.88663273,18.7736738 C6.88663273,20.5350795 8.29028817,21.9680446 10.0153272,21.9680446 C11.7403661,21.9680446 13.1434696,20.5350795 13.1434696,18.7736738 L13.1434696,9.9475983e-14 L24.2228537,9.9475983e-14 C28.0956014,9.9475983e-14 31.7114079,1.57231632 34.4033574,4.42753792 C37.0939269,7.28050511 38.4950985,11.0311537 38.3488269,14.9879408 C38.2544738,17.5400103 37.5690618,19.8897097 36.427704,21.9021028 L41.1122011,21.9021028 C45.1092797,21.9021028 48.1455194,18.7312626 48.4460662,14.4953503 C48.535485,15.1040434 48.5841962,15.7671244 48.5841962,16.4920609 C48.5841962,22.8668532 44.1256721,27.673979 38.2135395,27.673979 L36.427508,27.673979 L36.427508,21.9021028 L36.427704,21.9021028 Z M54.9481426,11.6496818 C52.2912431,7.01727351 47.2981377,5.82694031 42.0458831,5.82694031 L36.4275356,5.82694031 L36.4275356,0.0660544753 L41.1120907,0.0660544753 C47.344227,0.0660544753 53.4346454,4.30182589 54.9481426,11.6496818 Z M43.9217199,7.23152785 C48.6042051,7.62450126 55,10.3371309 55,16.1243652 C55,21.7353322 49.2116462,28.8857855 41.357689,28.8857855 L40.3253703,28.8857855 C46.2090766,27.6056982 49.8796659,23.2552333 49.8796659,16.4921173 C49.8796659,11.584529 47.7474123,8.34661983 43.9217199,7.23152785 Z M111.263442,23.9999721 L107.320486,17.2353766 L110.415586,17.2353766 L112.999986,23.9999721 L111.263442,23.9999721 Z M93.5849581,17.2353488 L96.6807392,17.2353488 L92.7377834,23.9999443 L91.0000136,23.9999443 L93.5849581,17.2353488 Z M98.3603747,6.32345029 L113,6.32345029 L113,8.06163646 L97.6962736,8.06163646 L95.6522468,13.7055538 L100.632801,13.7055538 L100.632801,10.9767645 L103.685978,10.9767645 L103.685978,13.7055538 L112.146292,13.7055538 L112.146292,15.3597622 L112.146292,15.4424866 L103.685978,15.4424866 L103.685978,19.5108811 C103.685978,20.9974126 103.276547,22.1072279 102.464354,22.8298822 C101.648893,23.5544862 100.368467,23.9427614 98.617086,24 L98.617086,22.3378534 C99.2920763,22.3257372 99.7973322,22.1687838 100.133534,21.8711711 C100.465244,21.5728621 100.632801,21.1279054 100.632801,20.0984468 L100.632801,15.4424866 L91.7501253,15.4424866 L94.61424,8.06163646 L91,8.06163646 L91,6.32345029 L95.287733,6.32345029 L95.7987057,5 L98.86495,5 L98.3603747,6.32345029 Z M66.7040012,13.7055614 L81.2955336,13.7055614 L81.2955336,10.976774 L66.7040012,10.976774 L66.7040012,13.7055614 Z M84.2527479,15.4292625 L84.2527479,15.4424928 L75.526941,15.4424928 L75.526941,19.5108844 C75.526941,20.9974148 75.1152895,22.1072293 74.3010159,22.8298831 C73.4830484,23.5543473 72.1930977,23.9427615 70.4328055,24 L70.4328055,22.3378546 C71.1106829,22.3257384 71.6206984,22.1687851 71.9565589,21.8711726 C72.2892729,21.5728639 72.4589132,21.0844563 72.4589132,20.0984497 L72.4589132,15.4424928 L63.7444612,15.4424928 L63.7444612,15.4292625 L63.7444612,9.23858913 L84.2527479,9.23858913 L84.2527479,15.4292625 Z M75.5387884,6.32344932 L84.9999316,6.32344932 L84.9999316,8.06177348 L63.000041,8.06177348 L63.000041,6.32344932 L72.4587217,6.32344932 L72.4587217,5 L75.5387884,5 L75.5387884,6.32344932 Z M63,23.9999582 L65.597139,17.2353677 L68.7094921,17.2353677 L64.7456539,23.9999582 L63,23.9999582 Z M79.2921495,17.2353398 L82.4024506,17.2353398 L85,23.9999304 L83.2551669,23.9999304 L79.2921495,17.2353398 Z M126.476169,5.04503964 L126.476169,9.31766271 L131.337805,9.31766271 L131.337805,11.0405058 L129.703636,11.0405058 C130.181516,11.6758915 130.698353,12.4645739 131.241983,13.6803371 L128.71794,13.6803371 C128.531627,12.7718655 128.208347,11.8428705 127.904888,11.0405058 L126.476169,11.0405058 L126.476169,14.2461948 L123.861636,14.2461948 L123.861636,13.817997 L123.861636,11.0405058 L122.43278,11.0405058 C122.129321,11.8428705 121.806178,12.7718655 121.619728,13.6803371 L119.095685,13.6803371 C119.639451,12.4645739 120.156289,11.6758915 120.634032,11.0405058 L119,11.0405058 L119,9.31766271 L123.861636,9.31766271 L123.861636,5.04503964 L126.476169,5.04503964 Z M125.199877,20.4218614 C126.413851,19.7260227 127.348013,18.7823682 127.441375,17.5159249 L122.958243,17.5159249 C123.051741,18.7823682 123.985904,19.7260227 125.199877,20.4218614 Z M129.809724,14.4611592 L129.802206,15.7929421 L131.337819,15.7929421 L131.337819,17.5159249 L129.7925,17.5159249 C129.7925,17.5159249 129.866178,19.6070711 127.544988,21.4173129 C129.500113,22.0387371 131.337819,22.2340579 131.337819,22.2340579 L131.337819,23.955086 C128.693349,23.7955066 126.701727,23.3363145 125.199877,22.7322025 C123.697891,23.3363145 121.706405,23.7955066 119.061936,23.955086 L119.061936,22.2340579 C119.061936,22.2340579 120.899641,22.0387371 122.854766,21.4173129 C120.533576,19.6070711 120.607254,17.5159249 120.607254,17.5159249 L119.000014,17.5159249 L119.000014,15.7929421 L120.597549,15.7929421 L120.589894,14.4611592 L122.883882,14.4611592 C122.883882,14.8886589 122.887573,15.3425457 122.895774,15.7929421 L127.503844,15.7929421 C127.512045,15.3425457 127.515873,14.8886589 127.515873,14.4611592 L129.809724,14.4611592 Z M135.701904,15.6554777 C135.826705,16.3845447 136.063868,17.1052348 136.403825,17.8006547 C136.743644,17.1052348 136.98067,16.3845447 137.105608,15.6554777 C137.480968,13.4647863 137.526214,10.0526075 137.531545,9.15586344 L135.331739,9.15586344 C135.327501,10.3328138 135.350192,13.602167 135.701904,15.6554777 Z M139.834691,9.15586344 C139.81323,10.5769996 139.674486,13.8085172 139.474367,15.4548516 C139.259759,17.2191603 138.59994,18.6543975 137.755722,19.8094284 C138.559205,20.7177604 139.579621,21.53283 140.815466,22.1951613 L140.815466,23.9550022 C140.815466,23.9550022 138.478419,23.2344517 136.403825,21.3188009 C134.328956,23.2344517 131.99191,23.9550022 131.99191,23.9550022 L131.99191,22.1951613 C133.227755,21.53283 134.24817,20.7177604 135.051654,19.8094284 C134.207436,18.6543975 133.547617,17.2192999 133.333145,15.4548516 C133.181279,14.2053017 133.095709,11.9298643 133.056341,10.2752926 C132.344716,10.5901234 131.820086,10.6470861 131.820086,10.6470861 L131.820086,9.24312252 C132.688499,9.03384035 133.575776,7.07086025 133.727642,5.94151842 L136.536554,5.94151842 C136.384414,6.50290839 136.191813,6.99658532 135.972694,7.43288069 L140.815466,7.43288069 L140.815466,9.15586344 L139.834691,9.15586344 Z M122.775443,8.71483514 L121.482187,8.71483514 C120.926665,8.01760025 120.290221,7.26396108 119.604567,5.73085407 L121.803143,5.73085407 C122.021989,6.79778821 122.457631,7.89767138 122.775443,8.71483514 Z M130.733156,5.73084011 C130.047502,7.26394712 129.411058,8.01758629 128.855536,8.71482118 L127.56228,8.71482118 C127.880229,7.89779703 128.315597,6.79777425 128.53458,5.73084011 L130.733156,5.73084011 Z M152.106856,7.38740824 L152.106856,9.25000551 L155.349632,9.25000551 L155.349632,10.948835 L152.106856,10.948835 L152.106856,23.9550441 L149.686973,23.9550441 L149.686973,10.948835 L146.013613,10.948835 L146.013613,9.25000551 L149.686973,9.25000551 L149.686973,7.67515376 L146.947502,8.01148513 L146.947502,6.57164062 L154.822406,5.11685735 L154.822406,7.09282161 L152.106856,7.38740824 Z M147.192429,12.6266245 L147.654316,12.6266245 L149.111467,12.6266245 L149.111467,17.4163797 L149.111467,17.4279677 C149.111467,21.9255098 146.013586,22.5286445 146.013586,22.5286445 L146.013586,21.1016445 C146.013586,21.1016445 147.192429,20.2504148 147.192429,17.3132046 L147.192429,12.6266245 Z M161.611582,10.8016952 L159.491331,10.8016952 L156.552971,6.62777961 L159.573621,6.62777961 L161.611582,10.8016952 Z M155.395096,18.7890278 L155.395096,17.0765161 L162.693017,17.0765161 L162.693017,5 L165.327918,5 L165.327918,17.0765161 L168,17.0765161 L168,18.7890278 L165.327918,18.7890278 L165.327918,24 L162.693017,24 L162.693017,18.7890278 L155.395096,18.7890278 Z M154.543169,12.6266245 L154.543169,17.3178119 C154.543169,20.2550221 155.721875,21.1061122 155.721875,21.1061122 L155.721875,22.5332518 C155.721875,22.5332518 152.623994,21.9299774 152.623994,17.4324354 L152.623994,17.4208474 L152.623994,12.6266245 L154.081145,12.6266245 L154.543169,12.6266245 Z M161.611582,15.8432173 L159.491331,15.8432173 L156.552971,11.6693017 L159.573621,11.6693017 L161.611582,15.8432173 Z" id="LOGO-"></path>
                </g>
            </g>
        </g>
    </g>
</svg>
