<?xml version="1.0" encoding="UTF-8"?>
<svg width="361px" height="34px" viewBox="0 0 361 34" version="1.1" xmlns="http://www.w3.org/2000/svg" xmlns:xlink="http://www.w3.org/1999/xlink">
    <!-- Generator: Sketch 52.4 (67378) - http://www.bohemiancoding.com/sketch -->
    <title>合并形状</title>
    <desc>Created with Sketch.</desc>
    <g id="页面-1" stroke="none" stroke-width="1" fill="none" fill-rule="evenodd">
        <path d="M350,33 C343.924868,33 339,28.0751322 339,22 C339,15.9248678 343.924868,11 350,11 C356.075132,11 361,15.9248678 361,22 C361,28.0751322 356.075132,33 350,33 Z M349,26 L348,26 L348,29 L349,29 L349,28.9810552 C349.165021,28.9936085 349.331764,29 349.5,29 C353.089851,29 356,26.0898509 356,22.5 C356,19.0783851 353.356224,16.2742573 350,16.0189448 L350,16 L345,16 L345,24 L348,24 L348,19 L349,19 L349,19.0354444 C349.163301,19.012086 349.330239,19 349.5,19 C351.432997,19 353,20.5670034 353,22.5 C353,24.4329966 351.432997,26 349.5,26 C349.330239,26 349.163301,25.987914 349,25.9645556 L349,26 Z M16.7268138,2.8125 L21.6724468,0.421875 C22.1456314,1.64063109 23.020724,4.31247937 24.297751,8.4375 C24.4079703,9.00000281 24.5140708,9.42187359 24.6160557,9.703125 L19.3036571,12.375 C18.6708468,8.90623266 17.8119076,5.71876453 16.7268138,2.8125 Z M9.56064202,1.40625 L14.341892,1.40625 L7.41512523,24.1875 C8.30765576,23.7187477 9.95206644,22.781257 12.3484066,21.375 C14.3779793,20.2499944 15.961263,19.3593783 17.0983052,18.703125 C17.0210235,19.2656278 16.9478602,19.9687458 16.8788129,20.8125 C16.7160152,21.6562542 16.5899591,22.6874939 16.5006409,23.90625 C13.9453051,25.2187566 10.6849887,26.9999888 6.71959372,29.25 C6.13681995,29.6250019 5.67630892,29.9062491 5.3380468,30.09375 C4.5677721,30.4687519 3.51024358,31.1718698 2.16542951,32.203125 L-4.54747351e-13,28.6875 C1.18581849,27.5624944 1.97825333,26.3437566 2.37732831,25.03125 L9.56064202,1.40625 Z M32.0482905,0.984375 L36.9701655,0.984375 C36.5058454,2.20313109 35.9031248,4.03123781 35.1619855,6.46875 C34.3270958,8.90626219 33.7243752,10.7343689 33.3538055,11.953125 C32.0913355,15.7968942 30.635053,18.8906133 28.9849144,21.234375 C29.2173895,21.7031273 29.6313411,22.4999944 30.2267815,23.625 C31.1934217,25.6875103 31.9928198,27.3749934 32.625,28.6875 L28.052781,32.625 C27.5428567,31.218743 26.7209718,29.2968872 25.5871017,26.859375 C25.448377,26.3906227 25.3137716,26.0625009 25.1832814,25.875 C21.8335978,28.875015 17.825505,31.2656161 13.1588826,33.046875 C12.6001819,32.1093703 11.8131352,30.843758 10.7977187,29.25 C16.3568716,26.9999888 20.3038375,24.6562622 22.6387347,22.21875 C24.9818663,20.0624892 26.9699221,16.4531503 28.6029618,11.390625 C29.0102712,10.3593698 29.5844869,8.62501219 30.3256261,6.1875 C31.1035052,3.93748875 31.6777209,2.20313109 32.0482905,0.984375 Z M57.2581652,5.484375 L60.9258216,2.671875 C62.3365109,3.89063109 63.7411609,5.43749063 65.1398136,7.3125 L61.1053916,10.40625 C60.0532353,8.62499109 58.7708394,6.9843825 57.2581652,5.484375 Z M53.5249382,14.0625 L57.2353525,11.109375 C58.7480266,12.6093825 60.1852986,14.2031166 61.5472116,15.890625 L57.3721646,18.984375 C56.4790039,17.2968666 55.196608,15.656258 53.5249382,14.0625 Z M49.5114064,25.875 L50.231641,21.65625 L61.3590707,20.671875 L67.5589546,0.28125 L72.3402046,0.28125 L66.2685942,20.25 L70.8968676,19.828125 L70.036008,24.046875 L64.9858596,24.46875 L62.4203904,32.90625 L57.6391404,32.90625 L60.0763361,24.890625 L49.5114064,25.875 Z M36.9948362,22.640625 C39.9207416,20.1093623 42.4164981,17.2968905 44.4821804,14.203125 L39.9821804,14.203125 L41.3076728,9.84375 L46.0889228,9.84375 L47.2006261,6.1875 C46.7318738,6.1875 46.0613779,6.23437453 45.1891183,6.328125 C44.2516136,6.328125 43.5342432,6.37499953 43.0369855,6.46875 C43.2118198,4.9687425 43.3296416,3.65625562 43.3904545,2.53125 C48.0982489,2.15624812 52.5063558,1.68750281 56.6149077,1.125 L56.6833137,5.0625 L54.0237902,5.484375 C53.0577802,5.57812547 52.2792828,5.67187453 51.6882746,5.765625 L50.4482978,9.84375 L54.8076728,9.84375 L53.4821804,14.203125 L49.1228054,14.203125 L48.267649,17.015625 L50.2421022,15.609375 C51.5020303,17.015632 52.4765752,18.2812444 53.1657661,19.40625 L49.5408675,22.078125 C49.2431473,21.5156222 48.8475654,20.8125042 48.3541098,19.96875 C48.0563896,19.4062472 47.8422876,19.0312509 47.7117974,18.84375 L43.4360154,32.90625 L39.0766404,32.90625 L42.4117503,21.9375 C40.724872,24.0937608 38.8932782,26.1093656 36.9169141,27.984375 C37.063243,26.578118 37.0892168,24.7968858 36.9948362,22.640625 Z M77.1366416,10.40625 L78.462134,6.046875 L82.259009,6.046875 L84.0120796,0.28125 L88.3714546,0.28125 L86.618384,6.046875 L89.430884,6.046875 L88.1053916,10.40625 L85.2928916,10.40625 L83.75361,15.46875 C84.1571173,15.3749995 84.7012421,15.2812505 85.3860007,15.1875 C86.0992647,14.9999991 86.5965149,14.90625 86.8777663,14.90625 C86.2139087,16.7812594 85.7252078,18.2343698 85.4116489,19.265625 C84.3233831,19.4531259 83.3146301,19.6874986 82.3853598,19.96875 L79.734375,28.6875 C79.0502465,30.9375112 77.6810648,32.2031236 75.6267889,32.484375 C74.2287662,32.7656264 72.8408999,32.8593755 71.4631482,32.765625 C71.6177116,31.6406194 71.6702892,30.2343834 71.6208828,28.546875 C71.9958847,28.546875 72.5441266,28.5937495 73.265625,28.6875 L74.25,28.6875 C75.0285091,28.5937495 75.5745349,28.0312552 75.8880938,27 L77.7266801,20.953125 C76.4224079,21.2343764 75.1039029,21.5624981 73.7711253,21.9375 L74.8030162,17.15625 L77.0406647,16.734375 C77.9414296,16.5468741 78.6404304,16.4062505 79.1376881,16.3125 L80.9335166,10.40625 L77.1366416,10.40625 Z M111.007322,4.921875 L109.767345,9 L101.611095,9 L100.499391,12.65625 L107.811891,12.65625 L106.571915,16.734375 C104.16797,20.0156414 101.315587,22.9218623 98.0146799,25.453125 C99.800371,26.6718811 101.971167,27.7031208 104.527133,28.546875 C104.009604,29.0156273 103.388199,29.6718708 102.662898,30.515625 C101.664581,31.6406306 100.967796,32.3906231 100.572523,32.765625 C97.820822,31.6406194 95.3890495,30.2343834 93.2771328,28.546875 C89.9800277,30.140633 86.3833553,31.640618 82.4870076,33.046875 C82.0258595,31.1718656 81.5485649,29.8125042 81.0551094,28.96875 C84.5561842,27.9374948 87.6312186,26.7656316 90.2803049,25.453125 C89.0691531,23.5781156 88.0087784,21.5156362 87.0991489,19.265625 L91.580149,17.015625 C92.2002927,18.9843848 93.3034248,20.9062406 94.8895784,22.78125 C97.6444517,20.8124902 99.7430402,18.8437598 101.185407,16.875 L86.9822819,16.875 L88.2650164,12.65625 L95.7181414,12.65625 L96.8298448,9 L89.3767198,9 L90.6166965,4.921875 L98.0698215,4.921875 L99.4808296,0.28125 L104.26208,0.28125 L102.851072,4.921875 L111.007322,4.921875 Z M205.582141,26.15625 C204.046654,30.2812706 201.108441,32.3906245 196.767414,32.484375 L189.876789,32.484375 C189.994612,31.1718684 190.057325,29.5781344 190.06493,27.703125 C193.26068,27.9843764 195.716525,28.0781255 197.432539,27.984375 C199.307548,27.984375 200.548458,27.1406334 201.155305,25.453125 C202.405738,22.2656091 204.04097,17.8125286 206.061048,12.09375 L196.357923,12.09375 C195.571809,14.0625098 194.626715,15.9374911 193.52261,17.71875 L197.471516,14.90625 C197.602007,15.0937509 197.844613,15.3749981 198.199344,15.75 C198.78655,16.5937542 199.905836,17.9999902 201.557235,19.96875 L197.015422,23.34375 C196.978682,23.1562491 196.862447,22.9218764 196.666711,22.640625 C195.520805,20.8593661 194.444276,19.3125066 193.437094,18 C189.558476,24.2812814 184.081749,29.3437308 177.00675,33.1875 L176.125945,31.921875 C175.603984,31.1718713 174.908786,30.3750042 174.040328,29.53125 C182.391094,25.4999798 188.142735,19.687538 191.295423,12.09375 L180.045423,12.09375 L181.370915,7.734375 L187.41779,7.734375 C186.683625,6.14061703 185.794595,4.5937575 184.750673,3.09375 L188.840205,0.28125 C190.136872,1.87500797 191.274528,3.37499297 192.253204,4.78125 L188.120915,7.734375 L193.04279,7.734375 C193.999936,5.20311234 194.89594,2.71876219 195.73083,0.28125 L200.933955,0.28125 C200.384118,1.7812575 199.644891,3.74998781 198.716251,6.1875 C198.422963,6.84375328 198.219312,7.35937313 198.10529,7.734375 L212.308415,7.734375 C209.331191,15.9844162 207.089122,22.1249798 205.582141,26.15625 Z M225.781822,0.421875 L230.037626,1.6875 C228.517978,4.21876266 226.839359,6.65623828 225.00172,9 L217.818406,32.625 L213.177781,32.625 L217.795626,17.4375 C216.703558,18.5625056 215.536126,19.7812434 214.293297,21.09375 C214.256558,20.9062491 214.248323,20.6250019 214.268594,20.25 C214.337641,19.4062458 214.33511,17.7187627 214.261001,15.1875 C217.997723,11.5312317 221.837958,6.60940594 225.781822,0.421875 Z M232.767414,32.484375 L238.283173,14.34375 L242.923798,14.34375 C241.003184,11.7187369 239.683734,8.81251594 238.965407,5.625 C236.055971,8.71876547 232.781717,11.6249864 229.142548,14.34375 L233.501923,14.34375 L231.919883,19.546875 C230.067035,25.6406555 226.884944,30.0937359 222.373515,32.90625 C221.908565,31.9687453 221.078761,30.8437566 219.884078,29.53125 C223.315476,27.1874883 225.676627,24.0468947 226.967602,20.109375 L228.592399,14.765625 C227.549107,15.4218783 226.491579,16.1249963 225.419782,16.875 L224.538032,12.375 C229.416229,9.28123453 233.959897,5.43752297 238.169173,0.84375 L243.653548,0.84375 L242.608361,1.96875 C243.661147,5.90626969 245.710319,9.18748688 248.755938,11.8125 L245.052172,16.59375 C244.921682,16.4062491 244.711697,16.1718764 244.422212,15.890625 C243.777995,15.2343717 243.358025,14.7656264 243.16229,14.484375 L237.689289,32.484375 L232.767414,32.484375 Z M261.758977,26.859375 L261.203125,28.6875 L273.015625,28.6875 L273.571477,26.859375 L261.758977,26.859375 Z M277.547954,13.78125 L278.103806,11.953125 L266.291306,11.953125 L265.735454,13.78125 L277.547954,13.78125 Z M263.2555,21.9375 L262.742407,23.625 L274.554907,23.625 L275.068,21.9375 L263.2555,21.9375 Z M264.752024,17.015625 L264.23893,18.703125 L276.05143,18.703125 L276.564524,17.015625 L264.752024,17.015625 Z M260.503845,0 L264.4784,1.265625 C262.930246,3.89063812 261.20887,6.46873734 259.31422,9 L252.04539,32.90625 L247.82664,32.90625 L252.401727,17.859375 C252.250966,18.0468759 251.977953,18.3281231 251.58268,18.703125 C251.252652,19.1718773 250.58849,19.9687444 249.590172,21.09375 C249.724465,20.3437463 249.874909,19.0781339 250.041508,17.296875 L250.389274,14.765625 C253.885287,10.359353 257.256777,5.43752719 260.503845,0 Z M253.567562,32.0625 L254.59375,28.6875 L256.984375,28.6875 L263.055985,8.71875 L270.930985,8.71875 L271.529595,6.75 L262.810845,6.75 L263.965306,2.953125 L272.684056,2.953125 L273.453697,0.421875 L277.813072,0.421875 L277.043431,2.953125 L286.605931,2.953125 L285.45147,6.75 L275.88897,6.75 L275.29036,8.71875 L283.305985,8.71875 L277.234375,28.6875 L279.625,28.6875 L278.598812,32.0625 L253.567562,32.0625 Z M116.830434,10.55 C117.865684,12.1333413 118.588535,13.4833277 118.999008,14.6 L117.678568,15.325 C117.173838,14.0249935 116.46512,12.6833403 115.552392,11.3 L116.830434,10.55 Z M122.247647,21.1 C123.530871,23.1833437 124.424497,24.958326 124.928551,26.425 L123.510306,27.225 C122.978662,25.5749917 122.120171,23.7666765 120.934808,21.8 L122.247647,21.1 Z M123.110671,9.875 L124.435671,9.875 L123.652728,12.45 C123.183579,13.8833405 122.747715,15.1249948 122.345121,16.175 L132.720121,16.175 C130.586653,23.1917018 128.909355,27.666657 127.688174,29.6 C126.455395,31.5166763 125.014023,32.475 123.364014,32.475 C122.180675,32.475 121.19662,32.4500002 120.411819,32.4 L120.439692,31.075 C121.609293,31.1750005 122.685746,31.225 123.669084,31.225 C125.287898,31.1083328 126.653034,29.6333475 127.76453,26.8 C128.894833,23.8499852 129.951528,20.7583495 130.934646,17.525 L121.809646,17.525 C120.451864,20.6750158 118.946131,23.3249893 117.292404,25.475 C114.908491,28.4916818 111.744724,30.866658 107.801007,32.6 L107.415874,31.4 C111.282788,29.6999915 114.372288,27.350015 116.684466,24.35 C118.094048,22.3999902 119.352429,20.125013 120.459646,17.525 L112.484646,17.525 L112.895121,16.175 L121.020121,16.175 C121.43285,15.0916612 121.868714,13.850007 122.327728,12.45 L123.110671,9.875 Z M139.272322,12.55 L145.222322,12.55 C145.145972,11.6499955 144.976887,10.8083372 144.715063,10.025 L146.191077,9.775 C146.392766,10.5916708 146.536513,11.5166615 146.622322,12.55 L152.097322,12.55 C152.805773,11.6999957 153.447885,10.7666718 154.023678,9.75 L155.362867,9.95 C154.860949,10.8333378 154.239107,11.6999957 153.497322,12.55 L159.322322,12.55 L158.942253,13.8 L149.592253,13.8 L148.748499,16.575 L156.823499,16.575 L156.458632,17.775 L148.383632,17.775 L147.532276,20.575 L157.732276,20.575 L157.337004,21.875 L135.587004,21.875 L135.982276,20.575 L146.182276,20.575 L147.033632,17.775 L139.058632,17.775 L139.423499,16.575 L147.398499,16.575 L148.242253,13.8 L138.892253,13.8 L139.272322,12.55 Z M147.038354,22.775 C146.74218,23.4750035 146.365944,24.191663 145.909634,24.925 L155.834634,24.925 L155.439362,26.225 L146.364362,26.225 C147.333957,28.7916795 150.226831,30.541662 155.04307,31.475 L153.963,32.725 C148.695971,31.5749943 145.702255,29.4166825 144.981761,26.25 C144.050222,27.450006 142.988576,28.4749957 141.79679,29.325 C139.729097,30.8083407 136.549397,31.9749957 132.257595,32.825 L132.110469,31.5 C135.989994,30.7999965 138.943288,29.7750067 140.97044,28.425 C141.874612,27.8083303 142.705911,27.0750042 143.464362,26.225 L134.864362,26.225 L135.259634,24.925 L144.459634,24.925 C144.96448,24.1416627 145.386718,23.383337 145.726361,22.65 L147.038354,22.775 Z M288.478574,11.625 L310.678574,11.625 L310.2757,12.95 L299.9257,12.95 C299.15655,14.3833405 298.266016,15.7499935 297.254072,17.05 L307.529072,17.05 L303.545944,30.15 C303.06452,31.7333413 302.123819,32.525 300.723812,32.525 L298.423812,32.525 L298.466888,31.15 L300.676685,31.2 C301.476689,31.2 302.013509,30.7500045 302.28716,29.85 L305.776198,18.375 L301.076198,18.375 L296.986651,31.825 L295.661651,31.825 L299.751198,18.375 L295.251198,18.375 L291.161651,31.825 L289.836651,31.825 L293.926198,18.375 L289.651198,18.375 L285.333609,32.575 L283.983609,32.575 L288.704072,17.05 L295.704072,17.05 C296.771084,15.7333267 297.653285,14.3666737 298.3507,12.95 L288.0757,12.95 L288.478574,11.625 Z M316.558128,16.05 C314.805187,18.4166785 312.950698,20.3499925 310.994605,21.85 L310.429066,20.75 C313.622555,18.2499875 316.300517,14.8416882 318.463035,10.525 L319.75442,10.8 C319.05554,12.1666735 318.288541,13.483327 317.4534,14.75 L323.4034,14.75 L324.82486,10.075 L326.14986,10.075 L324.7284,14.75 L333.1534,14.75 L332.758128,16.05 L324.333128,16.05 L322.425179,22.325 L330.350179,22.325 L329.947305,23.65 L322.022305,23.65 L319.947126,30.475 L329.972126,30.475 L329.561651,31.825 L307.661651,31.825 L308.072126,30.475 L318.622126,30.475 L320.697305,23.65 L313.172305,23.65 L313.575179,22.325 L321.100179,22.325 L323.008128,16.05 L316.558128,16.05 Z" id="合并形状" fill="#FFFFFF"></path>
    </g>
</svg>